<?xml version="1.0" encoding="UTF-8"?>
<svg id="Calque_1" data-name="Calque 1" xmlns="http://www.w3.org/2000/svg" viewBox="0 0 379.24 273.13">
  <defs>
    <style>
      .cls-1 {
        fill: #e86c09;
      }

      .cls-1, .cls-2, .cls-3 {
        stroke-width: 0px;
      }

      .cls-2 {
        fill: #1c3f8c;
      }

      .cls-3 {
        fill: #1c408c;
      }
    </style>
  </defs>
  <g>
    <g>
      <path class="cls-2" d="M60.9,184.96l-2.49,1.91c-1.38-1.79-3.03-3.15-4.95-4.07-1.93-.92-4.04-1.38-6.35-1.38-2.52,0-4.86.61-7,1.81-2.15,1.21-3.81,2.84-5,4.88s-1.77,4.34-1.77,6.89c0,3.85,1.32,7.07,3.96,9.65s5.98,3.87,10,3.87c4.43,0,8.13-1.73,11.11-5.2l2.49,1.89c-1.58,2.01-3.54,3.55-5.9,4.65-2.36,1.1-4.99,1.64-7.9,1.64-5.53,0-9.89-1.84-13.08-5.52-2.68-3.11-4.02-6.86-4.02-11.26,0-4.63,1.62-8.52,4.87-11.68s7.31-4.74,12.19-4.74c2.95,0,5.61.58,7.99,1.75,2.38,1.17,4.33,2.8,5.84,4.91Z"/>
      <path class="cls-3" d="M47.1,211.99c-5.65,0-10.18-1.92-13.46-5.69-2.75-3.19-4.14-7.08-4.14-11.59,0-4.75,1.69-8.79,5.02-12.04,3.32-3.24,7.54-4.88,12.54-4.88,3.01,0,5.77.61,8.21,1.8,2.44,1.2,4.47,2.9,6.03,5.07l.28.39-3.27,2.51-.3-.4c-1.32-1.72-2.93-3.04-4.77-3.93-1.85-.89-3.91-1.34-6.13-1.34-2.42,0-4.69.59-6.76,1.75-2.06,1.16-3.68,2.74-4.81,4.69-1.13,1.95-1.71,4.19-1.71,6.64,0,3.7,1.28,6.82,3.81,9.29,2.53,2.47,5.78,3.72,9.65,3.72,4.25,0,7.86-1.69,10.73-5.03l.31-.36,3.27,2.48-.31.4c-1.62,2.06-3.66,3.67-6.08,4.79-2.41,1.12-5.14,1.69-8.11,1.69ZM47.06,178.8c-4.73,0-8.71,1.55-11.84,4.59-3.13,3.05-4.71,6.85-4.71,11.32s1.31,7.93,3.9,10.93c3.08,3.55,7.35,5.35,12.71,5.35,2.82,0,5.4-.54,7.68-1.6,2.12-.99,3.93-2.37,5.39-4.11l-1.71-1.3c-3.01,3.33-6.77,5.02-11.18,5.02-4.14,0-7.62-1.35-10.35-4.01-2.73-2.66-4.11-6.03-4.11-10,0-2.63.62-5.03,1.84-7.14,1.22-2.11,2.96-3.81,5.18-5.06,2.22-1.25,4.65-1.88,7.25-1.88,2.37,0,4.58.48,6.56,1.43,1.85.89,3.47,2.17,4.82,3.83l1.71-1.31c-1.42-1.84-3.23-3.31-5.37-4.36-2.3-1.13-4.91-1.7-7.77-1.7Z"/>
    </g>
    <g>
      <path class="cls-2" d="M67.23,179.09h3.16v28.55h12.16v3.05h-15.32v-31.6Z"/>
      <path class="cls-3" d="M83.05,211.19h-16.32v-32.6h4.16v28.55h12.16v4.05ZM67.73,210.19h14.32v-2.05h-12.16v-28.55h-2.16v30.6Z"/>
    </g>
    <g>
      <path class="cls-2" d="M87.11,179.09h3.16v31.6h-3.16v-31.6Z"/>
      <path class="cls-3" d="M90.77,211.19h-4.16v-32.6h4.16v32.6ZM87.61,210.19h2.16v-30.6h-2.16v30.6Z"/>
    </g>
    <g>
      <path class="cls-2" d="M97.53,210.69v-31.6h.69l21.03,24.22v-24.22h3.12v31.6h-.71l-20.86-23.93v23.93h-3.27Z"/>
      <path class="cls-3" d="M122.86,211.19h-1.44l-20.13-23.1v23.1h-4.27v-32.6h1.42l20.3,23.39v-23.39h4.12v32.6ZM98.03,210.19h2.27v-24.77l21.57,24.75v-30.58h-2.12v25.06l-21.72-25.02v30.56Z"/>
    </g>
    <g>
      <path class="cls-2" d="M129.6,179.09h3.16v31.6h-3.16v-31.6Z"/>
      <path class="cls-3" d="M133.26,211.19h-4.16v-32.6h4.16v32.6ZM130.1,210.19h2.16v-30.6h-2.16v30.6Z"/>
    </g>
    <g>
      <path class="cls-2" d="M166.49,207.26l4.69,5.93h-3.89l-3.22-4.09c-2.58,1.59-5.49,2.39-8.72,2.39-4.68,0-8.63-1.6-11.85-4.81-3.22-3.21-4.83-7.09-4.83-11.64,0-3.04.74-5.86,2.21-8.46,1.47-2.6,3.48-4.63,6.02-6.09,2.54-1.46,5.33-2.19,8.36-2.19,4.68,0,8.63,1.6,11.84,4.8s4.82,7.14,4.82,11.81c0,2.44-.44,4.66-1.32,6.68s-2.25,3.91-4.12,5.68ZM164.53,204.79c2.75-2.68,4.13-5.99,4.13-9.92,0-2.51-.58-4.78-1.75-6.81-1.17-2.03-2.81-3.65-4.93-4.87-2.12-1.22-4.35-1.83-6.7-1.83s-4.59.61-6.68,1.82c-2.09,1.21-3.72,2.85-4.9,4.92-1.17,2.07-1.76,4.38-1.76,6.91,0,3.76,1.3,6.93,3.89,9.52,2.59,2.59,5.72,3.88,9.39,3.88,2.51,0,4.8-.61,6.88-1.83l-7.04-8.94h3.83l5.65,7.14Z"/>
      <path class="cls-3" d="M172.21,213.69h-5.16l-3.1-3.93c-2.56,1.48-5.45,2.23-8.6,2.23-4.8,0-8.9-1.67-12.2-4.96-3.3-3.29-4.98-7.33-4.98-12,0-3.11.77-6.04,2.28-8.7,1.51-2.67,3.6-4.78,6.21-6.28,2.6-1.5,5.5-2.26,8.61-2.26,4.8,0,8.9,1.66,12.19,4.95,3.3,3.28,4.97,7.38,4.97,12.16,0,2.49-.46,4.81-1.36,6.88-.85,1.95-2.16,3.8-3.9,5.52l5.05,6.38ZM167.53,212.69h2.61l-4.33-5.47.33-.31c1.81-1.71,3.16-3.57,4-5.51s1.28-4.13,1.28-6.48c0-4.51-1.57-8.36-4.67-11.45s-6.97-4.66-11.49-4.66c-2.93,0-5.66.71-8.11,2.12-2.45,1.41-4.42,3.4-5.84,5.9-1.42,2.51-2.15,5.27-2.15,8.21,0,4.4,1.58,8.19,4.68,11.29,3.11,3.1,6.97,4.67,11.5,4.67,3.12,0,5.97-.78,8.46-2.31l.38-.23,3.34,4.25ZM155.21,208.92c-3.79,0-7.07-1.35-9.74-4.03-2.68-2.67-4.04-5.99-4.04-9.87,0-2.61.61-5.02,1.83-7.16,1.21-2.14,2.92-3.86,5.08-5.11s4.49-1.88,6.93-1.88,4.77.64,6.95,1.89c2.19,1.26,3.91,2.96,5.12,5.06,1.21,2.1,1.82,4.47,1.82,7.06,0,4.05-1.44,7.51-4.28,10.27l-.4.39-5.84-7.38h-2.56l6.75,8.58-.5.29c-2.15,1.26-4.55,1.9-7.13,1.9ZM155.28,181.87c-2.26,0-4.43.59-6.43,1.75-2,1.16-3.59,2.75-4.71,4.74-1.12,1.98-1.7,4.23-1.7,6.67,0,3.6,1.26,6.68,3.74,9.16,2.48,2.48,5.52,3.73,9.04,3.73,2.2,0,4.26-.5,6.12-1.48l-7.31-9.28h5.11l5.45,6.88c2.38-2.5,3.59-5.58,3.59-9.16,0-2.41-.57-4.61-1.68-6.56-1.12-1.94-2.71-3.52-4.75-4.69-2.03-1.17-4.21-1.76-6.45-1.76Z"/>
    </g>
    <g>
      <path class="cls-2" d="M178.44,179.09h3.16v19.08c0,2.26.04,3.67.13,4.23.16,1.25.52,2.29,1.1,3.12.57.84,1.45,1.54,2.64,2.11,1.19.57,2.38.85,3.59.85,1.04,0,2.05-.22,3.01-.67.96-.44,1.76-1.06,2.41-1.85s1.12-1.74,1.42-2.86c.21-.8.32-2.45.32-4.94v-19.08h3.16v19.08c0,2.82-.28,5.1-.83,6.84-.55,1.74-1.65,3.26-3.31,4.54s-3.66,1.93-6,1.93c-2.55,0-4.73-.61-6.55-1.83-1.82-1.22-3.04-2.83-3.65-4.83-.39-1.23-.58-3.45-.58-6.66v-19.08Z"/>
      <path class="cls-3" d="M189.22,211.99c-2.64,0-4.94-.64-6.83-1.91-1.91-1.28-3.21-2.99-3.85-5.1-.41-1.29-.6-3.52-.6-6.81v-19.58h4.16v19.58c0,2.23.04,3.62.12,4.16.15,1.17.49,2.15,1.01,2.92.52.76,1.34,1.41,2.44,1.94,2.07.99,4.24,1.07,6.17.18.88-.41,1.63-.98,2.23-1.71.6-.73,1.04-1.63,1.32-2.67.2-.76.3-2.38.3-4.81v-19.58h4.16v19.58c0,2.86-.29,5.21-.85,6.99-.58,1.83-1.75,3.44-3.48,4.79-1.74,1.35-3.86,2.04-6.31,2.04ZM178.94,179.59v18.58c0,3.14.19,5.33.56,6.51.58,1.89,1.74,3.42,3.45,4.57,1.73,1.16,3.84,1.74,6.27,1.74,2.22,0,4.14-.62,5.7-1.83,1.56-1.22,2.62-2.67,3.14-4.3.53-1.68.8-3.94.8-6.69v-18.58h-2.16v18.58c0,2.56-.11,4.22-.34,5.07-.32,1.18-.83,2.21-1.51,3.04-.69.84-1.56,1.51-2.58,1.99-2.19,1.01-4.68.93-7.02-.19-1.26-.6-2.22-1.36-2.84-2.27-.62-.9-1.01-2.03-1.18-3.34-.09-.58-.13-1.99-.13-4.29v-18.58h-2.16Z"/>
    </g>
    <g>
      <path class="cls-2" d="M207.16,179.09h18.11v3.09h-14.95v9.9h14.82v3.09h-14.82v12.42h14.82v3.09h-17.98v-31.6Z"/>
      <path class="cls-3" d="M225.64,211.19h-18.98v-32.6h19.11v4.09h-14.95v8.9h14.82v4.09h-14.82v11.42h14.82v4.09ZM207.66,210.19h16.98v-2.09h-14.82v-13.42h14.82v-2.09h-14.82v-10.9h14.95v-2.09h-17.11v30.6Z"/>
    </g>
    <g>
      <path class="cls-2" d="M253.27,179.09h3.16v21.33c0,3.28-.25,5.56-.76,6.84-.51,1.28-1.36,2.31-2.55,3.07-1.19.77-2.63,1.15-4.32,1.15-1.28,0-2.53-.25-3.77-.74-1.24-.49-2.61-1.36-4.11-2.61l1.68-2.51c1.65,1.16,3.02,1.98,4.11,2.45.72.31,1.42.47,2.11.47.9,0,1.73-.27,2.46-.82s1.26-1.27,1.55-2.17.44-2.65.44-5.24v-21.23Z"/>
      <path class="cls-3" d="M248.8,211.99c-1.33,0-2.66-.26-3.96-.78-1.28-.51-2.71-1.42-4.25-2.69l-.35-.29,2.21-3.32.42.29c1.62,1.14,2.97,1.94,4.02,2.4,1.51.66,2.92.57,4.08-.29.66-.49,1.11-1.12,1.37-1.92.28-.85.42-2.56.42-5.09v-21.73h4.16v21.83c0,3.37-.26,5.67-.8,7.03-.54,1.38-1.47,2.49-2.74,3.31-1.27.82-2.81,1.23-4.59,1.23ZM241.58,208.04c1.32,1.06,2.54,1.81,3.63,2.25,1.17.47,2.38.71,3.58.71,1.58,0,2.94-.36,4.05-1.07,1.09-.7,1.88-1.66,2.35-2.84.48-1.22.73-3.46.73-6.66v-20.83h-2.16v20.73c0,2.67-.15,4.43-.47,5.4-.33,1-.91,1.81-1.73,2.42-1.44,1.06-3.25,1.2-5.07.4-1.02-.44-2.29-1.18-3.78-2.21l-1.14,1.71Z"/>
    </g>
    <g>
      <path class="cls-2" d="M264.22,179.09h3.16v19.08c0,2.26.04,3.67.13,4.23.16,1.25.52,2.29,1.1,3.12.57.84,1.45,1.54,2.64,2.11,1.19.57,2.38.85,3.59.85,1.04,0,2.05-.22,3.01-.67.96-.44,1.76-1.06,2.41-1.85s1.12-1.74,1.42-2.86c.21-.8.32-2.45.32-4.94v-19.08h3.16v19.08c0,2.82-.28,5.1-.83,6.84-.55,1.74-1.65,3.26-3.31,4.54s-3.66,1.93-6,1.93c-2.55,0-4.73-.61-6.55-1.83-1.82-1.22-3.04-2.83-3.65-4.83-.39-1.23-.58-3.45-.58-6.66v-19.08Z"/>
      <path class="cls-3" d="M275.01,211.99c-2.64,0-4.94-.64-6.83-1.91-1.91-1.28-3.21-2.99-3.85-5.1-.41-1.29-.6-3.52-.6-6.81v-19.58h4.16v19.58c0,2.23.04,3.62.12,4.16.15,1.17.49,2.15,1.01,2.92.52.76,1.34,1.41,2.44,1.94,2.07.99,4.24,1.07,6.17.18.88-.41,1.63-.98,2.23-1.71.6-.73,1.04-1.63,1.32-2.67.2-.76.3-2.38.3-4.81v-19.58h4.16v19.58c0,2.86-.29,5.21-.85,6.99-.58,1.83-1.75,3.44-3.48,4.79-1.74,1.35-3.86,2.04-6.31,2.04ZM264.72,179.59v18.58c0,3.14.19,5.33.56,6.51.58,1.89,1.74,3.42,3.45,4.57,1.73,1.16,3.84,1.74,6.27,1.74,2.22,0,4.14-.62,5.7-1.83,1.56-1.22,2.62-2.67,3.14-4.3.53-1.68.8-3.94.8-6.69v-18.58h-2.16v18.58c0,2.56-.11,4.22-.34,5.07-.32,1.18-.83,2.21-1.51,3.04-.69.84-1.56,1.51-2.58,1.99-2.2,1.01-4.68.93-7.02-.19-1.26-.6-2.22-1.36-2.84-2.27-.62-.9-1.01-2.03-1.18-3.34-.09-.58-.13-1.99-.13-4.29v-18.58h-2.16Z"/>
    </g>
    <g>
      <path class="cls-2" d="M323.41,184.4l-2.45,2.32c-1.76-1.73-3.69-3.05-5.79-3.94-2.1-.89-4.14-1.34-6.13-1.34-2.48,0-4.84.61-7.08,1.83-2.24,1.22-3.98,2.87-5.21,4.95-1.23,2.08-1.85,4.29-1.85,6.61s.64,4.64,1.91,6.78c1.27,2.14,3.04,3.82,5.29,5.05,2.25,1.22,4.71,1.84,7.39,1.84,3.25,0,6-.92,8.25-2.75,2.25-1.83,3.58-4.21,4-7.13h-10.08v-3.05h13.62c-.03,4.88-1.48,8.76-4.35,11.63-2.87,2.87-6.71,4.31-11.53,4.31-5.84,0-10.47-1.99-13.88-5.97-2.62-3.06-3.93-6.61-3.93-10.63,0-2.99.75-5.78,2.26-8.36s3.57-4.59,6.19-6.05c2.62-1.45,5.59-2.18,8.89-2.18,2.68,0,5.2.48,7.56,1.45s4.67,2.52,6.92,4.65Z"/>
      <path class="cls-3" d="M309.41,211.99c-5.97,0-10.77-2.07-14.26-6.15-2.69-3.14-4.05-6.83-4.05-10.96,0-3.07.78-5.97,2.32-8.61s3.69-4.74,6.38-6.23c2.68-1.49,5.76-2.24,9.14-2.24,2.73,0,5.34.5,7.75,1.49,2.41.99,4.79,2.58,7.07,4.75l.38.36-3.18,3.02-.34-.34c-1.71-1.68-3.6-2.97-5.64-3.84-4.55-1.94-8.89-1.65-12.78.46-2.15,1.17-3.84,2.77-5.02,4.77-1.18,2-1.78,4.13-1.78,6.35s.62,4.47,1.84,6.52c1.22,2.05,2.93,3.69,5.09,4.87,2.16,1.18,4.57,1.78,7.15,1.78,3.12,0,5.79-.89,7.93-2.64,1.99-1.62,3.24-3.72,3.72-6.25h-9.99v-4.05h14.62v.5c-.03,5-1.55,9.03-4.5,11.98-2.96,2.96-6.95,4.46-11.88,4.46ZM308.93,178.8c-3.21,0-6.12.71-8.65,2.12-2.53,1.4-4.55,3.38-6,5.86-1.45,2.49-2.19,5.22-2.19,8.11,0,3.88,1.28,7.35,3.81,10.31,3.29,3.85,7.83,5.8,13.5,5.8,4.65,0,8.41-1.4,11.17-4.16,2.66-2.66,4.07-6.29,4.2-10.78h-12.61v2.05h10.15l-.08.57c-.43,3.04-1.84,5.54-4.17,7.45-2.33,1.9-5.21,2.86-8.57,2.86-2.75,0-5.32-.64-7.63-1.9-2.32-1.26-4.16-3.02-5.48-5.23-1.32-2.21-1.98-4.57-1.98-7.03s.65-4.71,1.92-6.86c1.27-2.15,3.09-3.88,5.4-5.14,4.16-2.26,8.82-2.56,13.65-.5,2.01.86,3.89,2.11,5.6,3.71l1.72-1.63c-2.07-1.9-4.22-3.31-6.38-4.19-2.29-.94-4.77-1.41-7.37-1.41Z"/>
    </g>
    <g>
      <path class="cls-2" d="M331.32,179.09h18.11v3.09h-14.95v9.9h14.82v3.09h-14.82v12.42h14.82v3.09h-17.98v-31.6Z"/>
      <path class="cls-3" d="M349.8,211.19h-18.98v-32.6h19.11v4.09h-14.95v8.9h14.82v4.09h-14.82v11.42h14.82v4.09ZM331.82,210.19h16.98v-2.09h-14.82v-13.42h14.82v-2.09h-14.82v-10.9h14.95v-2.09h-17.11v30.6Z"/>
    </g>
  </g>
  <g>
    <g>
      <path class="cls-2" d="M94.89,232.35l-1.92,1.35c-1.06-1.26-2.33-2.22-3.81-2.87-1.48-.65-3.11-.98-4.88-.98-1.94,0-3.73.43-5.39,1.28-1.65.85-2.93,2-3.84,3.44-.91,1.44-1.36,3.05-1.36,4.85,0,2.71,1.02,4.98,3.05,6.8,2.03,1.82,4.6,2.72,7.69,2.72,3.4,0,6.25-1.22,8.54-3.66l1.92,1.33c-1.21,1.41-2.72,2.5-4.54,3.28-1.81.77-3.84,1.16-6.07,1.16-4.25,0-7.61-1.3-10.06-3.89-2.06-2.19-3.09-4.83-3.09-7.93,0-3.26,1.25-6,3.74-8.23,2.5-2.23,5.62-3.34,9.38-3.34,2.27,0,4.32.41,6.15,1.23,1.83.82,3.33,1.98,4.49,3.46Z"/>
      <path class="cls-3" d="M84.28,251.55c-4.38,0-7.88-1.36-10.43-4.05-2.14-2.28-3.23-5.06-3.23-8.28,0-3.39,1.32-6.29,3.91-8.6,2.58-2.3,5.84-3.46,9.71-3.46,2.33,0,4.47.43,6.35,1.28,1.9.85,3.47,2.07,4.68,3.61l.33.42-2.72,1.91-.29-.35c-1-1.2-2.22-2.11-3.63-2.73-1.41-.62-2.99-.93-4.68-.93-1.85,0-3.59.41-5.16,1.22-1.57.81-2.79,1.91-3.65,3.26-.85,1.35-1.29,2.89-1.29,4.58,0,2.59.94,4.69,2.88,6.42,1.93,1.72,4.4,2.6,7.36,2.6,3.24,0,6-1.18,8.18-3.5l.3-.32,2.73,1.89-.36.42c-1.26,1.46-2.84,2.61-4.72,3.41-1.87.79-3.98,1.2-6.27,1.2ZM84.25,228.16c-3.61,0-6.66,1.08-9.04,3.21-2.37,2.12-3.58,4.76-3.58,7.85s.99,5.51,2.95,7.59c2.35,2.48,5.61,3.73,9.7,3.73,2.16,0,4.13-.38,5.88-1.12,1.55-.66,2.89-1.58,3.98-2.73l-1.1-.77c-2.33,2.33-5.22,3.51-8.61,3.51-3.21,0-5.91-.96-8.03-2.85-2.13-1.91-3.22-4.32-3.22-7.17,0-1.88.48-3.61,1.44-5.12.95-1.51,2.31-2.72,4.04-3.61,1.72-.88,3.61-1.33,5.62-1.33,1.83,0,3.55.34,5.08,1.02,1.41.62,2.65,1.51,3.69,2.66l1.11-.78c-1.06-1.22-2.39-2.2-3.97-2.9-1.76-.79-3.75-1.19-5.94-1.19Z"/>
    </g>
    <g>
      <path class="cls-2" d="M99.04,227.66h2.31v22.83h-2.31v-22.83Z"/>
      <path class="cls-3" d="M101.85,250.99h-3.31v-23.83h3.31v23.83ZM99.54,249.99h1.31v-21.83h-1.31v21.83Z"/>
    </g>
    <g>
      <path class="cls-2" d="M106.96,227.24c.53,0,.98.17,1.35.51s.56.76.56,1.24-.19.88-.56,1.23c-.37.34-.82.51-1.35.51s-.96-.17-1.33-.51c-.37-.34-.56-.75-.56-1.23s.19-.9.56-1.24.82-.51,1.33-.51ZM105.81,234.02h2.31v16.47h-2.31v-16.47Z"/>
      <path class="cls-3" d="M108.62,250.99h-3.31v-17.47h3.31v17.47ZM106.31,249.99h1.31v-15.47h-1.31v15.47ZM106.96,231.23c-.64,0-1.2-.22-1.67-.65-.48-.44-.72-.98-.72-1.59s.24-1.17.72-1.61c.94-.87,2.43-.85,3.36,0,.48.44.72.98.72,1.61s-.24,1.15-.72,1.59c-.47.43-1.03.65-1.69.65ZM106.96,227.74c-.39,0-.71.12-.99.38-.27.25-.4.53-.4.87s.13.61.4.86c.57.52,1.45.51,2,0,.27-.25.4-.52.4-.86s-.13-.62-.4-.87c-.28-.26-.61-.38-1.01-.38Z"/>
    </g>
    <g>
      <path class="cls-2" d="M112.93,234.02h2.31v2.95c.92-1.13,1.95-1.97,3.07-2.54,1.12-.56,2.35-.84,3.67-.84s2.54.31,3.58.94,1.81,1.47,2.31,2.53c.5,1.06.74,2.71.74,4.95v8.48h-2.31v-7.86c0-1.9-.09-3.16-.26-3.8-.27-1.09-.78-1.91-1.54-2.46-.76-.55-1.75-.82-2.97-.82-1.4,0-2.65.42-3.76,1.27-1.11.85-1.84,1.9-2.19,3.15-.22.82-.33,2.31-.33,4.48v6.04h-2.31v-16.47Z"/>
      <path class="cls-3" d="M129.12,250.99h-3.31v-8.36c0-2.3-.13-3.26-.24-3.67-.24-.99-.69-1.7-1.35-2.18-.67-.48-1.57-.73-2.68-.73-1.28,0-2.44.39-3.46,1.17-1.03.79-1.69,1.73-2.01,2.89-.21.76-.31,2.23-.31,4.34v6.54h-3.31v-17.47h3.31v2.16c.73-.71,1.52-1.28,2.35-1.7,1.19-.59,2.5-.89,3.89-.89s2.72.34,3.83,1.01c1.12.68,1.96,1.6,2.5,2.75.53,1.13.79,2.82.79,5.16v8.98ZM126.8,249.99h1.31v-7.98c0-2.16-.23-3.75-.7-4.74-.46-.98-1.15-1.73-2.11-2.31-.96-.58-2.07-.87-3.32-.87s-2.4.26-3.45.79c-1.06.53-2.03,1.34-2.91,2.4l-.89,1.08v-3.85h-1.31v15.47h1.31v-5.54c0-2.24.11-3.75.35-4.61.38-1.36,1.18-2.5,2.37-3.42,1.19-.91,2.56-1.37,4.06-1.37,1.33,0,2.42.31,3.27.92.86.62,1.44,1.54,1.74,2.75.18.67.27,1.96.27,3.92v7.36Z"/>
    </g>
    <g>
      <path class="cls-2" d="M134.37,227.24c.53,0,.98.17,1.35.51s.56.76.56,1.24-.19.88-.56,1.23c-.37.34-.82.51-1.35.51s-.96-.17-1.33-.51c-.37-.34-.56-.75-.56-1.23s.19-.9.56-1.24c.37-.34.82-.51,1.33-.51ZM133.23,234.02h2.31v16.47h-2.31v-16.47Z"/>
      <path class="cls-3" d="M136.04,250.99h-3.31v-17.47h3.31v17.47ZM133.73,249.99h1.31v-15.47h-1.31v15.47ZM134.37,231.23c-.64,0-1.21-.22-1.67-.65-.48-.44-.72-.98-.72-1.59s.24-1.17.72-1.61c.94-.86,2.43-.85,3.36,0,.48.44.72.98.72,1.61s-.24,1.15-.72,1.59c-.47.43-1.03.65-1.69.65ZM134.37,227.74c-.39,0-.71.12-.99.38-.27.25-.4.53-.4.87s.13.61.4.86c.56.52,1.45.51,2,0,.27-.25.4-.52.4-.86s-.13-.62-.4-.87c-.28-.26-.61-.38-1.01-.38Z"/>
    </g>
    <g>
      <path class="cls-2" d="M158.25,234.02v22.49h-2.28v-8.85c-.97,1.08-2.06,1.89-3.26,2.44-1.21.54-2.53.82-3.96.82-2.54,0-4.72-.84-6.52-2.54-1.8-1.69-2.7-3.75-2.7-6.17s.91-4.4,2.73-6.09c1.82-1.68,4-2.53,6.56-2.53,1.48,0,2.81.29,4.01.86,1.2.57,2.25,1.44,3.15,2.59v-3.03h2.28ZM149,235.64c-1.29,0-2.48.29-3.57.87-1.09.58-1.96,1.39-2.6,2.44-.64,1.05-.96,2.16-.96,3.33s.32,2.27.97,3.33c.65,1.06,1.52,1.88,2.62,2.47,1.09.59,2.27.88,3.52.88s2.46-.29,3.6-.88c1.13-.58,2-1.38,2.62-2.37.61-1,.92-2.12.92-3.37,0-1.9-.68-3.5-2.05-4.78s-3.06-1.92-5.06-1.92Z"/>
      <path class="cls-3" d="M158.75,257.01h-3.28v-8.15c-.79.71-1.64,1.27-2.56,1.69-1.27.57-2.67.86-4.16.86-2.66,0-4.97-.9-6.86-2.67-1.9-1.78-2.86-3.98-2.86-6.53s.97-4.68,2.89-6.45c1.9-1.77,4.23-2.66,6.9-2.66,1.55,0,2.97.31,4.22.91.88.42,1.7,1,2.43,1.73v-2.22h3.28v23.49ZM156.47,256.01h1.28v-21.49h-1.28v3.97l-.89-1.14c-.85-1.08-1.85-1.91-2.97-2.45-1.12-.54-2.4-.81-3.79-.81-2.41,0-4.51.81-6.22,2.39-1.73,1.6-2.57,3.47-2.57,5.72s.83,4.2,2.54,5.8c1.7,1.59,3.78,2.4,6.18,2.4,1.35,0,2.62-.26,3.75-.77,1.14-.51,2.18-1.29,3.1-2.31l.87-.97v9.66ZM148.98,249.46c-1.33,0-2.6-.32-3.76-.94-1.17-.63-2.11-1.52-2.81-2.65-.69-1.13-1.05-2.34-1.05-3.59s.35-2.46,1.04-3.59c.69-1.12,1.63-2,2.79-2.62,1.16-.62,2.44-.93,3.8-.93,2.12,0,3.94.69,5.4,2.06,1.47,1.37,2.21,3.1,2.21,5.14,0,1.34-.33,2.56-.99,3.63-.66,1.07-1.6,1.93-2.81,2.56-1.2.62-2.49.93-3.83.93ZM149,236.14c-1.2,0-2.32.27-3.33.81-1,.53-1.82,1.29-2.41,2.26-.59.96-.89,1.99-.89,3.06s.3,2.09.9,3.06c.6.98,1.42,1.75,2.43,2.29,2.04,1.1,4.56,1.09,6.66,0,1.05-.54,1.86-1.28,2.42-2.19s.84-1.96.84-3.11c0-1.78-.62-3.22-1.9-4.41-1.29-1.2-2.83-1.79-4.72-1.79Z"/>
    </g>
    <g>
      <path class="cls-2" d="M163.14,234.02h2.31v7.69c0,1.88.11,3.17.33,3.88.33,1.01.96,1.81,1.9,2.39.93.58,2.04.88,3.33.88s2.39-.29,3.29-.86c.9-.57,1.52-1.32,1.86-2.25.23-.63.35-1.98.35-4.04v-7.69h2.36v8.08c0,2.27-.29,3.98-.87,5.13s-1.45,2.05-2.61,2.7c-1.16.65-2.62.98-4.37.98s-3.21-.33-4.39-.98c-1.17-.65-2.05-1.56-2.63-2.72-.58-1.17-.87-2.92-.87-5.26v-7.93Z"/>
      <path class="cls-3" d="M171.02,251.41c-1.83,0-3.39-.35-4.63-1.04-1.26-.7-2.21-1.69-2.83-2.94-.62-1.25-.92-3.04-.92-5.48v-8.43h3.31v8.19c0,1.82.1,3.07.31,3.73.29.9.85,1.59,1.68,2.12.85.53,1.88.8,3.07.8s2.2-.26,3.02-.78c.81-.51,1.35-1.17,1.66-2,.14-.4.32-1.39.32-3.87v-8.19h3.36v8.58c0,2.37-.3,4.12-.92,5.36-.62,1.24-1.57,2.22-2.81,2.91-1.23.69-2.79,1.04-4.62,1.04ZM163.64,234.52v7.43c0,2.25.27,3.95.82,5.04.53,1.07,1.34,1.91,2.42,2.51,1.09.61,2.49.91,4.15.91s3.04-.31,4.13-.91c1.07-.6,1.88-1.43,2.41-2.49.54-1.08.81-2.73.81-4.91v-7.58h-1.36v7.19c0,2.14-.12,3.51-.38,4.21-.38,1.03-1.07,1.87-2.06,2.5-.98.62-2.17.93-3.55.93s-2.59-.32-3.6-.95c-1.03-.65-1.74-1.54-2.1-2.66-.24-.77-.36-2.08-.36-4.03v-7.19h-1.31Z"/>
    </g>
    <g>
      <path class="cls-2" d="M199.15,245.02l1.95.94c-.64,1.15-1.38,2.08-2.22,2.79-.84.71-1.78,1.24-2.83,1.61s-2.23.55-3.56.55c-2.93,0-5.23-.88-6.88-2.64-1.65-1.76-2.48-3.75-2.48-5.97,0-2.09.7-3.95,2.1-5.58,1.78-2.08,4.15-3.12,7.13-3.12s5.51,1.06,7.34,3.19c1.3,1.5,1.96,3.38,1.98,5.63h-16.18c.04,1.91.71,3.48,2,4.71,1.29,1.22,2.88,1.83,4.78,1.83.92,0,1.81-.15,2.67-.44.87-.29,1.6-.68,2.21-1.16.61-.48,1.26-1.26,1.97-2.34ZM199.15,240.59c-.31-1.13-.76-2.03-1.35-2.71-.59-.68-1.37-1.22-2.34-1.63-.97-.41-1.99-.62-3.06-.62-1.77,0-3.28.52-4.55,1.56-.93.76-1.63,1.89-2.1,3.41h13.4Z"/>
      <path class="cls-3" d="M192.49,251.41c-3.06,0-5.5-.94-7.24-2.8-1.74-1.85-2.62-3.97-2.62-6.31,0-2.2.75-4.19,2.22-5.91,1.87-2.18,4.39-3.29,7.51-3.29s5.8,1.13,7.72,3.37c1.37,1.59,2.08,3.59,2.11,5.95v.5s-16.15,0-16.15,0c.14,1.55.73,2.81,1.82,3.84,1.21,1.14,2.66,1.7,4.44,1.7.86,0,1.7-.14,2.51-.41.81-.27,1.5-.63,2.06-1.08.56-.45,1.19-1.19,1.86-2.22l.24-.37,2.82,1.36-.26.46c-.67,1.2-1.45,2.18-2.33,2.92-.88.74-1.88,1.31-2.98,1.7-1.1.39-2.35.58-3.72.58ZM192.36,234.09c-2.85,0-5.06.96-6.75,2.94-1.31,1.54-1.98,3.3-1.98,5.26,0,2.08.79,3.97,2.35,5.63,1.55,1.65,3.74,2.48,6.52,2.48,1.26,0,2.4-.18,3.39-.52.99-.35,1.88-.86,2.67-1.52.67-.57,1.29-1.3,1.83-2.19l-1.07-.52c-.65.94-1.25,1.63-1.83,2.09-.65.52-1.44.93-2.36,1.24-.91.31-1.87.46-2.83.46-2.02,0-3.75-.66-5.12-1.97-1.38-1.31-2.11-3.01-2.16-5.06v-.51s16.16,0,16.16,0c-.11-1.9-.73-3.51-1.85-4.8-1.75-2.03-4.03-3.02-6.97-3.02ZM199.8,241.09h-14.74l.2-.65c.5-1.6,1.26-2.83,2.26-3.64,1.35-1.11,2.99-1.67,4.87-1.67,1.13,0,2.23.22,3.26.66,1.04.44,1.88,1.04,2.52,1.77.64.73,1.13,1.71,1.45,2.91l.17.63ZM186.45,240.09h12.02c-.27-.76-.62-1.39-1.05-1.88-.54-.61-1.26-1.12-2.16-1.5-.9-.38-1.87-.58-2.86-.58-1.64,0-3.06.49-4.23,1.45-.71.58-1.29,1.42-1.71,2.52Z"/>
    </g>
    <g>
      <path class="cls-2" d="M233.32,227.66v22.83h-2.28v-2.83c-.97,1.08-2.06,1.89-3.26,2.44-1.21.54-2.53.82-3.96.82-2.54,0-4.72-.84-6.52-2.54-1.8-1.69-2.7-3.75-2.7-6.17s.91-4.4,2.73-6.09c1.82-1.68,4-2.53,6.56-2.53,1.48,0,2.81.29,4.01.86,1.2.57,2.24,1.44,3.15,2.59v-9.38h2.28ZM224.07,235.64c-1.29,0-2.48.29-3.57.87-1.09.58-1.96,1.39-2.6,2.44-.64,1.05-.97,2.16-.97,3.33s.33,2.27.97,3.33c.65,1.06,1.52,1.88,2.62,2.47s2.27.88,3.52.88,2.46-.29,3.6-.88c1.13-.58,2-1.38,2.62-2.37.61-1,.92-2.12.92-3.37,0-1.9-.69-3.5-2.06-4.78-1.37-1.28-3.06-1.92-5.06-1.92Z"/>
      <path class="cls-3" d="M223.82,251.41c-2.66,0-4.97-.9-6.86-2.67-1.9-1.78-2.86-3.98-2.86-6.53s.97-4.68,2.89-6.45c1.9-1.77,4.23-2.66,6.9-2.66,1.55,0,2.97.31,4.22.91.88.42,1.7,1,2.43,1.73v-8.57h3.28v23.83h-3.28v-2.12c-.79.71-1.64,1.27-2.56,1.69-1.27.57-2.67.86-4.16.86ZM223.88,234.09c-2.41,0-4.51.81-6.22,2.39-1.73,1.6-2.57,3.47-2.57,5.72s.83,4.2,2.54,5.8c1.7,1.59,3.78,2.4,6.18,2.4,1.35,0,2.62-.26,3.75-.77,1.14-.51,2.18-1.29,3.1-2.31l.87-.97v3.63h1.28v-21.83h-1.28v10.33l-.89-1.14c-.85-1.09-1.85-1.91-2.97-2.45-1.12-.54-2.4-.81-3.79-.81ZM224.06,249.46c-1.33,0-2.6-.32-3.76-.94-1.17-.63-2.11-1.52-2.8-2.65-.7-1.13-1.05-2.34-1.05-3.59s.35-2.46,1.04-3.59c.69-1.12,1.63-2,2.79-2.62,1.16-.62,2.44-.93,3.8-.93,2.12,0,3.94.69,5.4,2.06,1.47,1.37,2.21,3.1,2.21,5.14,0,1.34-.33,2.56-.99,3.63-.66,1.07-1.6,1.93-2.81,2.56-1.2.62-2.49.93-3.83.93ZM224.07,236.14c-1.2,0-2.32.27-3.33.81-1,.53-1.81,1.29-2.41,2.26-.59.96-.89,2-.89,3.06s.3,2.09.9,3.06c.6.98,1.42,1.75,2.43,2.29,2.04,1.1,4.56,1.09,6.66,0,1.05-.54,1.86-1.28,2.42-2.19s.84-1.96.84-3.11c0-1.78-.62-3.22-1.9-4.41-1.29-1.2-2.83-1.79-4.72-1.79Z"/>
    </g>
    <g>
      <path class="cls-2" d="M238.26,234.02h2.31v7.69c0,1.88.11,3.17.33,3.88.33,1.01.96,1.81,1.9,2.39.93.58,2.04.88,3.33.88s2.39-.29,3.29-.86c.9-.57,1.52-1.32,1.86-2.25.23-.63.35-1.98.35-4.04v-7.69h2.36v8.08c0,2.27-.29,3.98-.87,5.13s-1.45,2.05-2.61,2.7c-1.16.65-2.62.98-4.37.98s-3.21-.33-4.39-.98c-1.17-.65-2.05-1.56-2.63-2.72-.58-1.17-.87-2.92-.87-5.26v-7.93Z"/>
      <path class="cls-3" d="M246.14,251.41c-1.83,0-3.39-.35-4.63-1.04-1.26-.7-2.21-1.69-2.83-2.94-.62-1.25-.92-3.04-.92-5.48v-8.43h3.31v8.19c0,1.82.1,3.07.31,3.73.29.9.85,1.59,1.68,2.12.85.53,1.88.8,3.07.8s2.2-.26,3.02-.78c.81-.51,1.35-1.17,1.66-2,.14-.4.32-1.39.32-3.87v-8.19h3.36v8.58c0,2.37-.3,4.12-.92,5.36-.62,1.24-1.57,2.22-2.81,2.91-1.23.69-2.79,1.04-4.62,1.04ZM238.76,234.52v7.43c0,2.25.27,3.95.82,5.04.53,1.07,1.34,1.91,2.42,2.51,1.09.61,2.49.91,4.15.91s3.04-.31,4.13-.91c1.07-.6,1.88-1.43,2.41-2.49.54-1.08.81-2.73.81-4.91v-7.58h-1.36v7.19c0,2.14-.12,3.51-.38,4.21-.38,1.03-1.07,1.87-2.06,2.5-.98.62-2.17.93-3.55.93s-2.59-.32-3.6-.95c-1.03-.65-1.74-1.54-2.1-2.66-.24-.77-.36-2.08-.36-4.03v-7.19h-1.31Z"/>
    </g>
    <g>
      <path class="cls-2" d="M266.37,246.34l2.07-1.14c1.45,2.45,3.13,3.68,5.04,3.68.82,0,1.58-.17,2.3-.52.72-.35,1.26-.81,1.64-1.4.37-.58.56-1.21.56-1.86,0-.75-.28-1.48-.83-2.2-.76-.99-2.15-2.18-4.16-3.57-2.03-1.4-3.29-2.42-3.79-3.04-.86-1.05-1.29-2.18-1.29-3.41,0-.97.25-1.85.76-2.65s1.22-1.42,2.14-1.88c.92-.46,1.92-.69,3-.69,1.15,0,2.22.26,3.21.78,1,.52,2.05,1.48,3.16,2.87l-1.98,1.38c-.92-1.11-1.69-1.84-2.34-2.2-.64-.35-1.35-.53-2.11-.53-.98,0-1.78.27-2.4.82-.62.54-.93,1.22-.93,2.01,0,.48.11.95.33,1.41s.62.95,1.21,1.48c.32.28,1.37,1.02,3.14,2.23,2.1,1.42,3.55,2.69,4.33,3.8s1.17,2.22,1.17,3.35c0,1.61-.67,3.02-2.01,4.21-1.34,1.19-2.97,1.79-4.88,1.79-1.48,0-2.81-.36-4.02-1.08-1.2-.72-2.31-1.93-3.32-3.62Z"/>
      <path class="cls-3" d="M273.71,251.55c-1.56,0-3-.39-4.27-1.15-1.26-.76-2.44-2.04-3.49-3.8l-.27-.45,2.94-1.62.25.42c1.35,2.28,2.9,3.43,4.61,3.43.74,0,1.43-.16,2.08-.47.63-.31,1.11-.72,1.43-1.22.32-.51.48-1.03.48-1.59,0-.64-.24-1.26-.72-1.89-.73-.94-2.09-2.11-4.05-3.47-2.09-1.44-3.36-2.47-3.89-3.14-.92-1.13-1.4-2.38-1.4-3.72,0-1.06.28-2.04.84-2.92.55-.87,1.34-1.56,2.34-2.06,2.03-1.01,4.6-.98,6.67.09,1.05.55,2.17,1.56,3.32,3l.33.42-2.8,1.95-.29-.36c-.87-1.06-1.61-1.75-2.19-2.08-.57-.31-1.2-.47-1.87-.47-.86,0-1.54.23-2.08.69-.51.45-.76.98-.76,1.64,0,.41.09.81.28,1.19.19.4.56.84,1.09,1.33.2.18.91.71,3.08,2.18,2.17,1.47,3.63,2.75,4.46,3.92.84,1.19,1.26,2.41,1.26,3.63,0,1.76-.73,3.3-2.18,4.58-1.43,1.27-3.18,1.91-5.21,1.91ZM267.07,246.52c.89,1.39,1.86,2.4,2.88,3.01,1.12.67,2.38,1.01,3.76,1.01,1.78,0,3.31-.56,4.55-1.66s1.84-2.36,1.84-3.83c0-1.01-.36-2.04-1.08-3.06-.74-1.06-2.16-2.29-4.2-3.67-1.81-1.22-2.85-1.96-3.19-2.26-.64-.59-1.07-1.12-1.32-1.64-.25-.52-.38-1.07-.38-1.63,0-.94.37-1.75,1.1-2.39.71-.62,1.63-.94,2.73-.94.84,0,1.63.2,2.35.59.63.35,1.35.99,2.19,1.96l1.16-.81c-.94-1.11-1.83-1.89-2.67-2.32-1.79-.93-4.02-.96-5.76-.09-.83.42-1.49.99-1.94,1.71-.45.71-.68,1.51-.68,2.38,0,1.11.38,2.12,1.17,3.09.47.59,1.71,1.58,3.68,2.95,2.08,1.43,3.47,2.64,4.28,3.68.62.8.93,1.64.93,2.5,0,.75-.22,1.47-.64,2.13-.42.66-1.04,1.19-1.84,1.58-.78.38-1.63.57-2.52.57-1.97,0-3.73-1.18-5.22-3.51l-1.19.65Z"/>
    </g>
    <g>
      <path class="cls-2" d="M285.39,234.02h2.31v3.03c.91-1.15,1.96-2.01,3.15-2.59,1.19-.58,2.51-.86,3.98-.86,2.55,0,4.74.84,6.55,2.53,1.82,1.69,2.72,3.71,2.72,6.09s-.9,4.48-2.7,6.17c-1.8,1.69-3.97,2.54-6.51,2.54-1.43,0-2.75-.27-3.95-.82-1.2-.54-2.28-1.36-3.25-2.44v8.85h-2.31v-22.49ZM294.64,235.64c-2,0-3.69.64-5.05,1.92s-2.05,2.87-2.05,4.78c0,1.25.31,2.37.92,3.37.61,1,1.48,1.79,2.62,2.37,1.14.58,2.34.88,3.6.88s2.41-.29,3.5-.88,1.96-1.41,2.61-2.47c.65-1.06.97-2.17.97-3.33s-.32-2.28-.96-3.33c-.64-1.05-1.51-1.86-2.6-2.44-1.09-.58-2.28-.87-3.56-.87Z"/>
      <path class="cls-3" d="M288.2,257.01h-3.31v-23.49h3.31v2.22c.74-.73,1.56-1.31,2.44-1.73,1.25-.61,2.66-.91,4.2-.91,2.67,0,4.99.9,6.89,2.66,1.91,1.78,2.88,3.95,2.88,6.45s-.96,4.75-2.86,6.53c-1.89,1.77-4.19,2.67-6.86,2.67-1.5,0-2.89-.29-4.15-.86-.91-.41-1.76-.98-2.54-1.68v8.15ZM285.89,256.01h1.31v-9.66l.87.97c.92,1.02,1.96,1.8,3.09,2.32,1.13.51,2.39.77,3.74.77,2.4,0,4.48-.81,6.17-2.4,1.71-1.61,2.54-3.51,2.54-5.8s-.84-4.12-2.56-5.72c-1.71-1.59-3.8-2.39-6.21-2.39-1.38,0-2.65.27-3.76.81-1.11.54-2.12,1.36-2.98,2.45l-.89,1.12v-3.96h-1.31v21.49ZM294.68,249.46c-1.34,0-2.63-.31-3.83-.93-1.21-.62-2.16-1.48-2.82-2.56-.66-1.07-.99-2.3-.99-3.63,0-2.04.74-3.77,2.21-5.14,1.46-1.36,3.27-2.06,5.4-2.06,1.36,0,2.64.31,3.8.93,1.16.62,2.1,1.5,2.79,2.62.69,1.12,1.04,2.33,1.04,3.59s-.35,2.46-1.05,3.59c-.69,1.13-1.63,2.02-2.8,2.65-1.16.63-2.42.94-3.74.94ZM294.64,236.14c-1.89,0-3.43.58-4.71,1.79-1.27,1.19-1.89,2.64-1.89,4.41,0,1.15.28,2.2.84,3.11.56.91,1.37,1.65,2.42,2.19,2.1,1.08,4.59,1.1,6.64,0,1.01-.54,1.83-1.32,2.42-2.29.6-.97.9-2,.9-3.07s-.3-2.1-.89-3.06c-.59-.97-1.4-1.73-2.41-2.26-1.01-.54-2.13-.81-3.33-.81Z"/>
    </g>
    <g>
      <path class="cls-2" d="M316.95,233.59c2.77,0,5.07.92,6.89,2.75,1.66,1.67,2.48,3.66,2.48,5.95s-.88,4.31-2.62,6.03c-1.75,1.72-4,2.58-6.75,2.58s-5.01-.86-6.76-2.58c-1.75-1.72-2.62-3.73-2.62-6.03s.83-4.26,2.48-5.93c1.82-1.85,4.12-2.77,6.9-2.77ZM316.94,235.67c-1.92,0-3.58.65-4.96,1.95s-2.07,2.88-2.07,4.72c0,1.19.31,2.3.95,3.33.63,1.03,1.48,1.82,2.55,2.38,1.07.56,2.25.84,3.53.84s2.46-.28,3.53-.84c1.07-.56,1.92-1.35,2.55-2.38s.95-2.14.95-3.33c0-1.85-.69-3.42-2.08-4.72s-3.04-1.95-4.95-1.95Z"/>
      <path class="cls-3" d="M316.95,251.41c-2.88,0-5.27-.92-7.11-2.72-1.84-1.81-2.77-3.96-2.77-6.39s.88-4.52,2.63-6.29c1.91-1.94,4.35-2.92,7.26-2.92s5.33.98,7.24,2.9c1.74,1.76,2.63,3.88,2.63,6.3s-.93,4.58-2.77,6.39c-1.84,1.81-4.23,2.72-7.1,2.72ZM316.95,234.09c-2.63,0-4.83.88-6.55,2.62-1.58,1.59-2.34,3.42-2.34,5.58s.83,4.06,2.47,5.68c1.64,1.62,3.8,2.44,6.41,2.44s4.75-.82,6.4-2.44c1.64-1.61,2.47-3.52,2.47-5.68s-.79-4.03-2.34-5.6c-1.71-1.73-3.91-2.61-6.53-2.61ZM316.94,249.4c-1.36,0-2.63-.3-3.76-.9-1.15-.6-2.07-1.46-2.75-2.57-.68-1.1-1.02-2.31-1.02-3.59,0-1.98.75-3.69,2.23-5.09,1.47-1.39,3.25-2.09,5.3-2.09s3.82.7,5.29,2.09c1.49,1.39,2.24,3.1,2.24,5.09,0,1.28-.34,2.49-1.02,3.59-.68,1.1-1.6,1.97-2.75,2.57-1.14.59-2.4.9-3.76.9ZM316.94,236.17c-1.81,0-3.32.59-4.62,1.82-1.29,1.21-1.92,2.64-1.92,4.36,0,1.09.29,2.12.87,3.07.58.95,1.37,1.69,2.36,2.2,1.99,1.04,4.61,1.04,6.6,0,.99-.51,1.78-1.25,2.36-2.2.58-.95.87-1.98.87-3.07,0-1.72-.63-3.14-1.92-4.36-1.3-1.22-2.81-1.82-4.61-1.82Z"/>
    </g>
    <g>
      <path class="cls-2" d="M329.73,234.02h2.36v2.41c.71-.95,1.45-1.66,2.23-2.13.78-.47,1.6-.7,2.45-.7.64,0,1.32.19,2.05.56l-1.21,1.79c-.49-.19-.89-.29-1.22-.29-.77,0-1.51.29-2.23.87-.72.58-1.26,1.48-1.64,2.7-.29.94-.43,2.84-.43,5.69v5.57h-2.36v-16.47Z"/>
      <path class="cls-3" d="M332.59,250.99h-3.36v-17.47h3.36v1.54c.47-.49.97-.89,1.47-1.19,1.51-.91,3.15-1.1,4.98-.16l.5.26-1.75,2.58-.37-.15c-.42-.17-.77-.25-1.04-.25-.66,0-1.29.25-1.92.76-.63.51-1.13,1.34-1.47,2.46-.27.88-.41,2.75-.41,5.54v6.07ZM330.23,249.99h1.36v-5.07c0-2.93.15-4.84.45-5.84.4-1.31,1.01-2.3,1.8-2.94.8-.65,1.66-.98,2.54-.98.3,0,.64.06,1.03.19l.66-.97c-1.32-.51-2.42-.29-3.49.36-.72.43-1.42,1.1-2.09,2l-.9,1.21v-3.42h-1.36v15.47Z"/>
    </g>
    <g>
      <path class="cls-2" d="M342.8,227.9h2.31v6.12h3.67v1.83h-3.67v14.64h-2.31v-14.64h-3.16v-1.83h3.16v-6.12Z"/>
      <path class="cls-3" d="M345.61,250.99h-3.31v-14.64h-3.16v-2.83h3.16v-6.12h3.31v6.12h3.67v2.83h-3.67v14.64ZM343.3,249.99h1.31v-14.64h3.67v-.83h-3.67v-6.12h-1.31v6.12h-3.16v.83h3.16v14.64Z"/>
    </g>
  </g>
  <g>
    <path class="cls-2" d="M157.34,118.82c-12.23-2.29-17.84-31.88-19.71-44.65-1.48.37-3.03.73-4.68,1.07,4.08,16.52,8.78,34.37,15.65,41.36,14.88,15.11,28.49-6.16,28.49-6.16,0,0-8.59,10.47-19.76,8.37"/>
    <path class="cls-2" d="M136.88,68.37c-4.88-27.89-5.71-58.1-18.78-58.06-24.51.08-45.47,96.41-45.47,96.41,0,0,16.89-69.7,41.11-67.23,11.37,1.15,13.96,15.61,18.02,31.05,1.71-.47,3.44-1.02,5.18-1.64-.04-.35-.06-.53-.06-.53"/>
    <path class="cls-1" d="M159.66,62.1c-.93-1.75-4.06-1.92-14.53,3.31-2.76,1.38-5.49,2.53-8.19,3.49-1.74.62-3.47,1.17-5.18,1.64-25.35,7.02-41.97-.52-41.97-.52,7.9,6.51,21.85,8.53,33.15,6.95,3.64-.51,6.96-1.1,10.01-1.73,1.65-.34,3.2-.7,4.68-1.08,16.78-4.18,23.23-9.83,22.03-12.07"/>
    <path class="cls-2" d="M255.42,125.58c0,1.1.3,1.95.91,2.56.6.62,1.62,1.1,3.06,1.43l2.65.63c1.18.27,1.96.55,2.35.82.4.27.59.67.59,1.21,0,.83-.3,1.47-.89,1.91-.6.44-1.46.65-2.61.65-1.32,0-2.3-.25-2.94-.72-.64-.48-1.02-1.27-1.15-2.35h-2.46c.12,1.82.7,3.16,1.76,4.01,1.05.85,2.65,1.28,4.8,1.28,1.84,0,3.32-.44,4.4-1.32,1.09-.88,1.63-2.08,1.63-3.59,0-1.12-.31-2.01-.94-2.63-.64-.64-1.7-1.13-3.18-1.5l-2.65-.63c-1.16-.28-1.94-.55-2.33-.82-.39-.28-.58-.68-.58-1.23,0-.71.27-1.25.83-1.62.55-.37,1.36-.56,2.42-.56s1.86.23,2.47.7c.61.47.96,1.13,1.04,1.97h2.4c-.06-1.51-.62-2.71-1.67-3.57-1.05-.87-2.46-1.3-4.24-1.3s-3.13.42-4.15,1.27c-1.03.83-1.53,1.98-1.53,3.41"/>
    <path class="cls-2" d="M279,130.56c0,.33-.01.64-.05.91-.02.27-.05.46-.08.58-.21.64-.63,1.23-1.27,1.74-.93.73-2.07,1.1-3.42,1.1-.85,0-1.51-.23-1.98-.69-.46-.46-.7-1.12-.7-1.98,0-.69.29-1.24.86-1.64.57-.41,1.47-.7,2.71-.87l2.35-.34c.58-.09,1.1-.25,1.58-.47v1.66ZM282.44,134.84c-.27,0-.48-.07-.64-.23-.16-.16-.23-.36-.23-.62v-8.38c0-1.54-.49-2.71-1.46-3.51-.97-.8-2.38-1.21-4.23-1.21-1.96,0-3.48.42-4.53,1.26-1.06.83-1.64,2.1-1.76,3.76h2.36c.12-.97.48-1.7,1.07-2.18.59-.49,1.42-.74,2.47-.74s1.96.23,2.58.69c.62.47.92,1.1.92,1.92v.13c0,.39-.09.71-.27.97-.18.26-.44.43-.77.51-.26.06-.52.11-.81.14l-3.49.44c-1.58.2-2.78.7-3.6,1.51-.82.81-1.24,1.89-1.24,3.26s.45,2.43,1.32,3.24c.88.79,2.05,1.19,3.54,1.19,1.85,0,3.42-.57,4.7-1.72.24-.22.47-.45.65-.69.12.65.33,1.14.62,1.5.43.53,1.13.79,2.1.79.2,0,.42-.02.71-.07.28-.07.54-.14.78-.24v-1.86c-.17.05-.33.07-.48.1-.15.02-.26.02-.33.02"/>
    <path class="cls-2" d="M292.29,120.9c-1.67,0-3.06.65-4.18,1.96l-.57.75v-2.25h-2.44v15.24h2.57v-8.16c0-1.6.36-2.86,1.08-3.8.72-.93,1.7-1.4,2.93-1.4,1.16,0,1.99.3,2.51.89.52.59.78,1.56.78,2.9v9.57h2.56v-10.44c0-1.68-.45-2.98-1.36-3.89-.91-.91-2.22-1.37-3.89-1.37"/>
    <path class="cls-2" d="M306.14,123.46v-2.09h-2.41v-4.28h-2.56v4.28h-2.11v2.09h2.11v10.04c0,1.21.23,2.05.69,2.55.46.5,1.25.74,2.37.74.4,0,1.03-.07,1.91-.2v-1.98h-.91c-.45,0-.82-.1-1.09-.3-.26-.2-.4-.47-.4-.81v-10.04h2.41Z"/>
    <path class="cls-2" d="M311.02,124.71c.81-1.01,1.88-1.51,3.23-1.51s2.36.44,3.05,1.3c.62.8.98,1.9,1.05,3.31h-8.49c.14-1.28.52-2.32,1.16-3.1M307.13,129.3c0,2.41.62,4.3,1.85,5.66,1.23,1.37,2.93,2.05,5.09,2.05,1.79,0,3.26-.44,4.4-1.31,1.14-.88,1.9-2.15,2.28-3.82h-2.54c-.15.85-.6,1.55-1.33,2.11-.73.55-1.59.83-2.56.83-1.56,0-2.7-.48-3.42-1.45-.58-.8-.93-1.96-1.04-3.47h11.14l.03-.91c0-2.42-.61-4.36-1.84-5.84-1.22-1.48-2.83-2.22-4.82-2.22-2.21,0-3.96.76-5.27,2.28-1.31,1.51-1.96,3.55-1.96,6.11"/>
    <polygon class="cls-2" points="318.84 115.21 315.69 115.21 313.1 119.31 315.08 119.31 318.84 115.21"/>
    <path class="cls-2" d="M249.84,110.45h1.09l2.17-1.63c2.16-11.07,4.15-19.02,5.96-23.83,0-3.25-.54-4.88-1.63-4.88h-2.17c-1.8,8.81-3.61,15.49-5.42,20.05l-1.63-1.63c-3.51-11.92-5.86-17.88-7.04-17.88-1.95,0-3.03.9-3.25,2.71,5.63,18.06,9.6,27.09,11.91,27.09"/>
    <path class="cls-2" d="M325.32,146.9c5.88-5.42,20.47-25.32,21.91-26.03,1.44-.72,1.37,4.92-11.43,23.9-1.68,2.5,0,3.36,1.68,2.52,1.59-.79,5.03-5.02,7.37-8.28,0,0,18.42-24.52,16.22-67.93-.2-3.14-2.52-3.77-2.62-.2,0,0,.95,21.18-8.38,23.37,0,0-3.57.94-6.3-1.68-2.73-2.62-15.62-16.03-18.66-17.61-3.04-1.57-3.46.42-1.36,2.52,5,5,13.21,9.85,14.99,29.35,0,0,1.94,16.22-16.99,38.47-2.77,3.84.74,5.03,3.57,1.61"/>
    <path class="cls-2" d="M347.63,89.73c3.07,0,5.55-2.49,5.55-5.55s-2.49-5.55-5.55-5.55-5.55,2.48-5.55,5.55,2.48,5.55,5.55,5.55"/>
    <path class="cls-1" d="M163.77,102.06v1.09c.79,7.22,2.06,10.83,3.79,10.83,3.01,0,5.9-2.17,8.67-6.5v-2.17l-5.42,2.71h-1.08l-.54-5.41v-24.92c0-8.66-1.08-13-3.24-13-2.53.98-3.79,2.43-3.79,4.34.94,2.79,1.66,11.82,2.16,27.08l-.54,5.96Z"/>
    <path class="cls-1" d="M204.88,84.08l-5.28,1.73c-1.81,2.89-3.07,4.33-3.79,4.33-1.59-3.3-3.4-5.65-5.42-7.05h-1.63c-2.52,1.38-3.79,2.64-3.79,3.8h-1.62c0-1.69-1.08-2.96-3.25-3.8-1.04.53-1.67,1.34-1.88,2.43,1.08,17.89,1.71,27.37,1.88,28.46h.54c1.54,0,2.81-.72,3.79-2.17-1.37-9.51-.29-16.55,3.25-21.12h1.08c2.17,1.26,3.25,7.39,3.25,18.42,0,1.81.55,2.89,1.63,3.25h.54l2.71-1.62c-1.28-10.74.89-17.78,6.5-21.13,1.91,0,2.99,5.42,3.26,16.25v3.26l1.08,3.25c2.32,0,3.94-1.44,4.87-4.33v-1.08c-1.1-14.52-3.68-22.13-7.72-22.86"/>
    <path class="cls-1" d="M228.82,98.16c0,2.29-1.99,4.82-5.96,7.59h-3.25v-1.62c0-6.98,2.7-12.4,8.13-16.25h1.08v10.29ZM235.32,91.12l-.54-1.63c0-2.91-2.17-5.44-6.5-7.59l-2.17.55c-7.95,5.49-11.92,12.71-11.92,21.67.87,5.05,2.67,7.58,5.42,7.58,2.4,0,5.84-1.81,10.29-5.42,1.32,4.07,2.59,6.42,3.79,7.04h1.63c.55,0,1.09-.72,1.62-2.17-1.81-5.44-2.71-10.31-2.71-14.63l1.08-5.42Z"/>
    <path class="cls-1" d="M264.32,81.8c1.5-.51,2.58-1.4,3.25-2.71v-1.62l-2.17-2.17h-.54c-2.16,0-3.25,1.08-3.25,3.25v1.08c.17.75,1.07,1.47,2.71,2.17"/>
    <path class="cls-1" d="M269.74,111.6h1.08c2.07-1.18,3.52-2.44,4.33-3.79v-1.62h-3.79c-1.25,0-2.15-1.99-2.71-5.96v-8.13c0-2.77-.72-4.4-2.17-4.88h-.54c-2.89,0-4.33,1.8-4.33,5.41l.54,7.04c1.32,7.94,3.85,11.92,7.58,11.92"/>
    <path class="cls-1" d="M287.18,110.45h1.09l2.17-1.63c2.17-11.07,4.15-19.02,5.96-23.83,0-3.25-.55-4.88-1.63-4.88h-2.17c-1.81,8.81-3.61,15.49-5.42,20.05l-1.62-1.63c-3.51-11.92-5.86-17.88-7.04-17.88-1.94,0-3.03.9-3.25,2.71,5.63,18.06,9.61,27.09,11.91,27.09"/>
    <path class="cls-1" d="M303.68,104.13c0-6.98,2.71-12.4,8.13-16.25h1.08v10.29c0,2.29-1.98,4.82-5.96,7.58h-3.25v-1.62ZM303.68,111.71c2.41,0,5.85-1.81,10.3-5.42,1.32,4.07,2.58,6.42,3.79,7.04h1.62c.56,0,1.1-.72,1.63-2.17-1.8-5.44-2.7-10.31-2.7-14.63l1.08-5.42-.54-1.62c0-2.91-2.17-5.44-6.5-7.59l-2.17.55c-7.95,5.49-11.92,12.71-11.92,21.67.87,5.05,2.68,7.58,5.41,7.58"/>
    <rect class="cls-1" x="28.17" y="157.54" width="322.87" height=".54"/>
  </g>
</svg>