<svg xmlns="http://www.w3.org/2000/svg" width="161" height="111" fill="none" viewBox="0 0 161 111">
  <g clip-path="url(#a)">
    <path fill="#0e1a1f" d="m2.85 111 1.05-2.4-.51-1.11L0 99.69h2.86l2.35 5.81h.11l2.36-5.81h2.87L5.65 111h-2.8Zm15.87-8.67v6.22H16.4l-.24-.92.31-.63c-.7 1.18-2.27 1.81-3.85 1.81-1.98 0-3.12-.97-3.12-2.83s1.12-2.67 3.39-2.67h3.08v-.68c0-.84-.51-1.14-1.79-1.14-1.18 0-1.67.26-1.79.95H9.96c-.09-2.18 1.46-3 4.34-3s4.41.97 4.41 2.9m-4.99 4.41c.9 0 1.65-.24 2.25-.73v-1.04h-2.64c-.7 0-1.04.29-1.04.87 0 .58.44.9 1.31.9h.12Zm7.1.74c-.87-.88-1.29-2.01-1.29-3.37 0-1.36.43-2.49 1.29-3.36.87-.89 2.06-1.33 3.61-1.33 2.71 0 4.39 1.5 4.67 3.8h-2.69c-.22-.89-.95-1.36-1.98-1.36-1.36 0-2.2.9-2.2 2.25s.84 2.25 2.2 2.25c1.02 0 1.75-.48 1.98-1.36h2.69c-.12 1.14-.6 2.06-1.41 2.76-.82.7-1.91 1.04-3.25 1.04-1.55 0-2.74-.44-3.61-1.31m18.64-4.01v5.06h-2.76V104c0-1.45-.65-2.16-1.94-2.16-1.42 0-2.13.82-2.13 2.18v4.53H29.9v-12.1h2.74v4.41l-.26.63c.7-1.38 1.84-2.06 3.42-2.06 2.45 0 3.66 1.48 3.66 4.05"/>
    <path fill="#0e1a1f" d="M46.51 102.02h-2.47v2.95c0 .88.39 1.21 1.28 1.21h1.19v2.45h-1.7c-2.47 0-3.51-1.12-3.51-3.22v-3.39h-1.96v-2.33h1.96v-3.07h2.74v3.07h2.47v2.33Zm1.59 5.47c-.87-.88-1.29-2.01-1.29-3.37 0-1.36.43-2.49 1.29-3.36.87-.89 2.06-1.33 3.61-1.33 2.71 0 4.39 1.5 4.67 3.8h-2.69c-.22-.89-.95-1.36-1.98-1.36-1.36 0-2.2.9-2.2 2.25s.84 2.25 2.2 2.25c1.02 0 1.75-.48 1.98-1.36h2.69c-.12 1.14-.6 2.06-1.41 2.76-.82.7-1.91 1.04-3.25 1.04-1.55 0-2.74-.44-3.61-1.31m17.86-5.17v6.22h-2.32l-.24-.92.31-.63c-.7 1.18-2.27 1.81-3.85 1.81-1.98 0-3.12-.97-3.12-2.83s1.12-2.67 3.39-2.67h3.08v-.68c0-.84-.51-1.14-1.79-1.14-1.18 0-1.67.26-1.79.95h-2.43c-.09-2.18 1.46-3 4.34-3s4.41.97 4.41 2.9m-4.99 4.41c.9 0 1.65-.24 2.25-.73v-1.04h-2.64c-.7 0-1.04.29-1.04.87 0 .58.44.9 1.31.9h.12Zm14.98-3.58v.68h-2.56v-.21c0-1.21-.55-1.81-1.64-1.81-1.23 0-1.82.78-1.82 2.03v4.68h-2.74v-8.86h2.64l.1 1.18-.22.54c.63-1.28 1.46-1.98 3.01-1.98 2.13 0 3.22 1.41 3.22 3.73m3.28 1.79c.24 1.17 1 1.77 2.28 1.77.94 0 1.53-.31 1.79-.9h2.61c-.15.82-.63 1.52-1.43 2.11-.8.6-1.84.89-3.12.89-1.53 0-2.73-.44-3.6-1.31-.87-.87-1.29-1.99-1.29-3.37 0-1.38.43-2.49 1.29-3.36.87-.89 2.08-1.33 3.61-1.33 1.53 0 2.79.49 3.66 1.47.87.97 1.24 2.32 1.11 4.04h-6.92l.01-.01Zm-.02-1.65h4.24c-.26-1.29-.92-1.84-2.08-1.84-1.24 0-1.96.61-2.16 1.84Z"/>
    <path fill="#E23E30" d="M96.53 103.49v5.06h-2.76V104c0-1.45-.65-2.16-1.94-2.16-1.41 0-2.13.82-2.13 2.18v4.53h-2.74v-8.86h2.64l.1 1.18-.26.63c.7-1.38 1.84-2.06 3.42-2.06 2.45 0 3.66 1.48 3.66 4.05m3.56 1.45c.24 1.17 1 1.77 2.28 1.77.94 0 1.53-.31 1.79-.9h2.61c-.15.82-.63 1.52-1.43 2.11-.8.6-1.84.89-3.12.89-1.53 0-2.73-.44-3.59-1.31-.87-.87-1.29-1.99-1.29-3.37 0-1.38.43-2.49 1.29-3.36.87-.89 2.08-1.33 3.61-1.33 1.53 0 2.79.49 3.66 1.47.87.97 1.24 2.32 1.11 4.04h-6.92v-.01Zm-.02-1.65h4.24c-.26-1.29-.92-1.84-2.08-1.84-1.24 0-1.96.61-2.16 1.84Zm14.09-1.27h-2.47v2.95c0 .88.39 1.21 1.28 1.21h1.19v2.45h-1.7c-2.47 0-3.51-1.12-3.51-3.22v-3.39h-1.96v-2.33h1.96v-3.07h2.74v3.07h2.47v2.33Zm3.01 6.53-2.89-8.86h2.83l1.73 5.96 2.22-5.96h2.89l2.22 5.96 1.74-5.96h2.82l-2.91 8.86h-3.08l-2.23-5.96-2.24 5.96h-3.1Zm14.06-1.07c-.89-.89-1.33-2.01-1.33-3.36s.44-2.47 1.33-3.36c.89-.89 2.08-1.33 3.59-1.33 1.51 0 2.73.44 3.61 1.33.89.89 1.33 2.01 1.33 3.36s-.44 2.47-1.33 3.36c-.89.89-2.1 1.33-3.61 1.33-1.51 0-2.71-.44-3.59-1.33Zm3.59-1.11c.7 0 1.24-.2 1.64-.63.39-.43.6-.95.6-1.62 0-.67-.21-1.19-.6-1.62-.39-.43-.94-.63-1.64-.63s-1.24.2-1.64.63c-.39.43-.6.95-.6 1.62 0 .67.21 1.19.6 1.62.39.43.94.63 1.64.63Zm14.49-3.2v.68h-2.56v-.21c0-1.21-.55-1.81-1.64-1.81-1.23 0-1.82.78-1.82 2.03v4.68h-2.74v-8.86h2.64l.1 1.18-.22.54c.63-1.28 1.46-1.98 3.02-1.98 2.13 0 3.22 1.41 3.22 3.73m11.5 5.4h-3.22l-2.34-2.85-2.38 2.85h-2.59v-12.1h2.74v6.78l-.05 1.67h.07l1.26-1.63 2.81-3.58h3.19l-3.45 4.11 3.96 4.75Z"/>
    <path fill="#0e1a1f" d="M47.71 57.5C53.55 70 66.23 78.66 80.94 78.66c20.24 0 36.65-16.41 36.65-36.66 0-5.69-1.29-11.07-3.61-15.88L47.71 57.5Z"/>
    <path fill="#E23E30" d="M114.03 26.23c-5.9-12.35-18.5-20.88-33.09-20.88-20.25 0-36.66 16.41-36.66 36.66 0 5.56 1.24 10.82 3.45 15.55l66.3-31.33Z"/>
    <path fill="#0e1a1f" d="M121.953 20.687 35.426 61.921l1.221 2.564 86.528-41.234-1.222-2.564Z"/>
    <path fill="#E23E30" d="M80.93 55.15c7.35 0 13.33-5.97 13.33-13.33s-5.97-13.33-13.33-13.33S67.6 34.46 67.6 41.82s5.97 13.33 13.33 13.33Z"/>
    <path fill="#0e1a1f" d="M86.12 32.23h.04l4.23 16.14-3.97.56-1.37-7.68H85l-4.18 7.68h-.05l-3.81-7.65h-.05l-1.37 7.65-4.04-.56 4.37-16.14h.04L80.94 42l5.18-9.77Z"/>
    <path stroke="#fff" stroke-width=".5" d="M86.12 32.23h.04l4.23 16.14-3.97.56-1.37-7.68H85l-4.18 7.68h-.05l-3.81-7.65h-.05l-1.37 7.65-4.04-.56 4.37-16.14h.04L80.94 42l5.18-9.77Z"/>
    <path fill="#0e1a1f" d="M40.95 66.67v.82h.51c.45 0 1.06.07 1.06-.38 0-.42-.35-.44-.74-.44h-.83Zm2 2.82h-.54l-.84-1.52h-.61v1.52h-.48V66.2h1.38c.6 0 1.13.18 1.13.87 0 .65-.44.88-.88.9l.83 1.52h.01Zm-3.8-1.67a2.45 2.45 0 0 0 2.46 2.45 2.45 2.45 0 1 0 0-4.9 2.45 2.45 0 0 0-2.46 2.45Zm-.48 0c0-1.62 1.3-2.92 2.93-2.92 1.63 0 2.93 1.3 2.93 2.92 0 1.62-1.3 2.93-2.93 2.93-1.63 0-2.93-1.3-2.93-2.93ZM120.05 42c0 21.59-17.57 39.16-39.15 39.16S41.74 63.59 41.74 42c0-21.59 17.57-39.16 39.16-39.16V0c-23.16 0-42 18.84-42 42s18.84 42 42 42 41.99-18.84 41.99-42h-2.84Z"/>
    <path fill="#193C6B" d="M80.93 54.16c-6.81 0-12.33-5.52-12.33-12.33 0-6.81 5.52-12.33 12.33-12.33 6.81 0 12.33 5.52 12.33 12.33 0 6.81-5.52 12.33-12.33 12.33Zm0-27.75c-8.51 0-15.41 6.9-15.41 15.42s6.9 15.41 15.41 15.41 15.41-6.9 15.41-15.41-6.9-15.42-15.41-15.42Zm-23.58 39.4 6.85-6.55.02.02-1.41 7.47 6.52-3.88.02.01-3.83 8.68-1.12-.6 2.4-5.34-.02-.01-5.39 3.17-.02-.01 1.11-6.19-.02-.01-4.19 4.09-.92-.85Zm20.49 4.68-.95-2.76-1.61 2.42 2.56.33v.01Zm-6.36 3.25 5.77-8.56h.03l3.38 9.76-1.32.1-1.13-3.3-3.62-.48-1.93 2.9-1.17-.43-.01.01Zm15.66-4.38.9-.21c.87-.2 1.51-1 1.29-1.97-.24-1.04-1.02-1.37-2.01-1.14l-.9.21.72 3.11Zm-.18 5.03-2.07-9.01 2.18-.5c1.32-.31 3.06 0 3.52 2.01.3 1.32-.28 2.22-1.43 2.77l3.53 3.09-1.34.69-4.13-3.79h-.02l.99 4.31-1.23.45v-.02Zm11.48-4.1-4.76-7.86 1-.85 4.81 7.95-1.05.76Zm7.4-5.68-7.78-5.36.01-.03 8.54-1.18-4.88-3.37.56-1.19 7.65 5.28-.01.02-8.54 1.19 5.05 3.49-.6 1.15Zm6.92-13.31-8.94-1.63.86-4.77 1.22-.06-.68 3.77 2.53.46.55-3.01 1.17.21-.55 3.01 2.9.52.73-4.05 1.11.58-.9 4.97Z"/>
    <path fill="#0e1a1f" d="M48.2 37v-.03l9.52-1.61.12 2.32-4.49.4-.01.03 4.21 2.8v.02l-4.6 1.81v.03l4.33 1.18-.53 2.3-9.07-3.34v-.03l5.89-2.4L48.2 37Zm7.55-7.33c1.19.76 2.94.48 3.72-.75.78-1.23.31-2.93-.88-3.69-1.19-.76-2.94-.48-3.72.75-.78 1.23-.31 2.93.88 3.69Zm4.07-6.37c2.26 1.45 2.86 4.48 1.41 6.75-1.45 2.26-4.45 3-6.72 1.54-2.27-1.45-2.86-4.48-1.41-6.75 1.45-2.26 4.45-2.99 6.72-1.55m12.95-3.09-7.89-1.43 2.54 4.25-1.86 1.36-4.89-8.21.03-.01 7.83 1.34-2.54-4.25 1.86-1.36 4.95 8.3-.03.01Zm4.79-4.68 2.44-.24-1.43-2.13-1 2.37h-.01Zm.67-6.07 5.84 8.67-2.27.69-1.13-1.88-3.49.34-.74 2.06-2.25-.26 4.01-9.62h.03Zm15.41 4.9c-.38-.48-.82-.94-1.41-1.12-1.49-.46-2.87.29-3.34 1.81-.47 1.53.18 2.94 1.74 3.42.59.18 1.29.05 1.86-.15l-.99 2.26c-.42.09-1.24-.03-1.65-.15-2.69-.82-4.01-3.26-3.17-6 .81-2.63 3.32-4.06 5.99-3.24.49.15.98.38 1.35.72l-.39 2.45h.01Zm5.07 5.33c-.94 1.05-.93 2.82.15 3.79 1.09.97 2.85.77 3.79-.29.94-1.05.93-2.82-.15-3.79-1.08-.97-2.85-.77-3.78.29m5.65 5.03c-1.79 2.01-4.88 2.12-6.89.33s-2.26-4.87-.47-6.88c1.79-2.01 4.88-2.12 6.89-.33s2.26 4.87.47 6.88Z"/>
  </g>
  <defs>
    <clipPath id="a">
      <path fill="#0e1a1f" d="M0 0h160.8v111H0z"/>
    </clipPath>
  </defs>
</svg>
